<svg xmlns="http://www.w3.org/2000/svg" version="1.1" xmlns:xlink="http://www.w3.org/1999/xlink" xmlns:svgjs="http://svgjs.dev/svgjs" width="1500" height="193" viewBox="0 0 1500 193"><g transform="matrix(1,0,0,1,-0.9090909090909918,0.5451905160495443)"><svg viewBox="0 0 396 51" data-background-color="#091f5b" preserveAspectRatio="xMidYMid meet" height="193" width="1500" xmlns="http://www.w3.org/2000/svg" xmlns:xlink="http://www.w3.org/1999/xlink"><g id="tight-bounds" transform="matrix(1,0,0,1,0.2400000000000091,-0.14406588766075856)"><svg viewBox="0 0 395.52 51.28776524602642" height="51.28776524602642" width="395.52"><g><svg viewBox="0 0 469.5978201254928 60.89356482261836" height="51.28776524602642" width="395.52"><g transform="matrix(1,0,0,1,74.07782012549279,16.484906465772113)"><svg viewBox="0 0 395.52 27.92375189107413" height="27.92375189107413" width="395.52"><g id="textblocktransform"><svg viewBox="0 0 395.52 27.92375189107413" height="27.92375189107413" width="395.52" id="textblock"><g><svg viewBox="0 0 395.52 27.92375189107413" height="27.92375189107413" width="395.52"><g transform="matrix(1,0,0,1,0,0)"><svg width="395.52" viewBox="3.6 -35 495.71999999999997 35" height="27.92375189107413" data-palette-color="#fff9ef"><path d="M44-35L44 0 39 0 39-10 11.05-10 11.05-15 39-15 39-30 21.05-30Q17.65-30 14.8-28.33 11.95-26.65 10.28-23.8 8.6-20.95 8.6-17.5L8.6-17.5 8.6 0 3.6 0 3.6-17.5Q3.6-21.1 4.95-24.28 6.3-27.45 8.7-29.88 11.1-32.3 14.28-33.65 17.45-35 21.05-35L21.05-35 44-35ZM78.1-5L78.1 0 51.8 0 51.8-27.5 56.8-27.5 56.8-5 78.1-5ZM108.65-5L108.65 0 82.34 0 82.34-27.5 87.34-27.5 87.34-5 108.65-5ZM161.79-8.1L161.79-8.1Q161.79-5.85 160.72-4.03 159.64-2.2 157.79-1.1 155.94 0 153.69 0L153.69 0 130.34 0 130.34-5 153.69-5Q154.99-5 155.92-5.9 156.84-6.8 156.84-8.1L156.84-8.1Q156.84-9.4 155.92-10.33 154.99-11.25 153.69-11.25L153.69-11.25 138.39-11.25Q136.19-11.25 134.37-12.35 132.54-13.45 131.44-15.3 130.34-17.15 130.34-19.4L130.34-19.4Q130.34-21.6 131.44-23.45 132.54-25.3 134.37-26.4 136.19-27.5 138.39-27.5L138.39-27.5 159.94-27.5 159.94-22.55 138.39-22.55Q137.14-22.55 136.22-21.63 135.29-20.7 135.29-19.4L135.29-19.4Q135.29-18.1 136.22-17.18 137.14-16.25 138.39-16.25L138.39-16.25 153.69-16.25Q155.94-16.25 157.79-15.15 159.64-14.05 160.72-12.2 161.79-10.35 161.79-8.1ZM198.44-17.5L198.44-17.5Q198.44-14.8 197.09-12.5 195.74-10.2 193.46-8.83 191.19-7.45 188.44-7.45L188.44-7.45 174.54-7.45 174.54-12.4 188.44-12.4Q190.54-12.4 192.01-13.93 193.49-15.45 193.49-17.5L193.49-17.5Q193.49-19.6 192.01-21.08 190.54-22.55 188.44-22.55L188.44-22.55 171.94-22.55 171.94 0 166.99 0 166.99-27.5 188.44-27.5Q191.19-27.5 193.46-26.15 195.74-24.8 197.09-22.53 198.44-20.25 198.44-17.5ZM235.44-13.8L235.44-13.8Q235.44-10 233.86-6.88 232.29-3.75 229.44-1.88 226.59 0 222.79 0L222.79 0 214.09 0Q210.29 0 207.41-1.88 204.54-3.75 202.96-6.88 201.39-10 201.39-13.8L201.39-13.8Q201.39-17.6 202.96-20.7 204.54-23.8 207.41-25.65 210.29-27.5 214.09-27.5L214.09-27.5 222.79-27.5Q226.59-27.5 229.44-25.65 232.29-23.8 233.86-20.7 235.44-17.6 235.44-13.8ZM230.44-13.8L230.44-13.8Q230.44-16.2 229.54-18.2 228.64-20.2 226.91-21.38 225.19-22.55 222.79-22.55L222.79-22.55 214.09-22.55Q211.69-22.55 209.96-21.38 208.24-20.2 207.31-18.2 206.39-16.2 206.39-13.8L206.39-13.8Q206.39-11.4 207.31-9.4 208.24-7.4 209.96-6.2 211.69-5 214.09-5L214.09-5 222.79-5Q225.19-5 226.91-6.2 228.64-7.4 229.54-9.4 230.44-11.4 230.44-13.8ZM265.23-7.85L273.33 0 266.53 0 258.73-7.45 248.58-7.45 248.58-12.4 262.43-12.4Q264.53-12.4 266.01-13.93 267.48-15.45 267.48-17.5L267.48-17.5Q267.48-19.6 266.01-21.08 264.53-22.55 262.43-22.55L262.43-22.55 245.98-22.55 245.98 0 240.98 0 240.98-27.5 262.43-27.5Q265.23-27.5 267.48-26.15 269.73-24.8 271.08-22.53 272.43-20.25 272.43-17.5L272.43-17.5Q272.43-15.25 271.51-13.28 270.58-11.3 268.96-9.88 267.33-8.45 265.23-7.85L265.23-7.85ZM293.58-22.55L293.58 0 288.58 0 288.58-22.55 275.33-22.55 275.33-27.5 306.78-27.5 306.78-22.55 293.58-22.55ZM341.08-8.1L341.08-8.1Q341.08-5.85 340-4.03 338.93-2.2 337.08-1.1 335.23 0 332.98 0L332.98 0 309.63 0 309.63-5 332.98-5Q334.28-5 335.2-5.9 336.13-6.8 336.13-8.1L336.13-8.1Q336.13-9.4 335.2-10.33 334.28-11.25 332.98-11.25L332.98-11.25 317.68-11.25Q315.48-11.25 313.65-12.35 311.83-13.45 310.73-15.3 309.63-17.15 309.63-19.4L309.63-19.4Q309.63-21.6 310.73-23.45 311.83-25.3 313.65-26.4 315.48-27.5 317.68-27.5L317.68-27.5 339.23-27.5 339.23-22.55 317.68-22.55Q316.43-22.55 315.5-21.63 314.58-20.7 314.58-19.4L314.58-19.4Q314.58-18.1 315.5-17.18 316.43-16.25 317.68-16.25L317.68-16.25 332.98-16.25Q335.23-16.25 337.08-15.15 338.93-14.05 340-12.2 341.08-10.35 341.08-8.1ZM380.22-22.55L380.22 0 375.22 0 375.22-22.55 361.97-22.55 361.97-27.5 393.42-27.5 393.42-22.55 380.22-22.55ZM429.02-27.6L429.02 0 424.02 0 424.02-7.55 404.77-7.55 404.77-12.65 424.02-12.65 424.02-22.55 411.02-22.55Q408.57-22.55 406.57-21.35 404.57-20.15 403.37-18.18 402.17-16.2 402.17-13.75L402.17-13.75 402.17 0 397.12 0 397.12-13.75Q397.12-16.6 398.2-19.13 399.27-21.65 401.2-23.55 403.12-25.45 405.65-26.53 408.17-27.6 411.02-27.6L411.02-27.6 429.02-27.6ZM462.52-5L462.52 0 436.22 0 436.22-27.5 441.22-27.5 441.22-5 462.52-5ZM483.22-16.05L499.32 0 492.57 0 479.37-13.25 471.77-7.75 471.77 0 466.77 0 466.77-27.5 471.77-27.5 471.77-13.5 491.42-27.5 499.07-27.5 483.22-16.05Z" opacity="1" transform="matrix(1,0,0,1,0,0)" fill="#fff9ef" class="wordmark-text-0" data-fill-palette-color="primary" id="text-0"></path></svg></g></svg></g></svg></g></svg></g><g><svg viewBox="0 0 60.89356482261836 60.89356482261836" height="60.89356482261836" width="60.89356482261836"><g><svg></svg></g><g id="icon-0"><svg viewBox="0 0 60.89356482261836 60.89356482261836" height="60.89356482261836" width="60.89356482261836"><g><path d="M0 30.447c0-16.815 13.631-30.447 30.447-30.447 16.815 0 30.447 13.631 30.447 30.447 0 16.815-13.631 30.447-30.447 30.447-16.815 0-30.447-13.631-30.447-30.447zM30.447 58.375c15.425 0 27.929-12.504 27.928-27.928 0-15.425-12.504-27.929-27.928-27.929-15.425 0-27.929 12.504-27.929 27.929 0 15.425 12.504 27.929 27.929 27.928z" data-fill-palette-color="accent" fill="#edf0f5" stroke="transparent"></path></g><g transform="matrix(1,0,0,1,19.892150078152532,19.340240891439095)"><svg viewBox="0 0 21.10926466631329 22.213083039740166" height="22.213083039740166" width="21.10926466631329"><g><svg xmlns="http://www.w3.org/2000/svg" data-name="Layer 1" viewBox="7.234859996483524 5.000011926895535 85.52767362519302 89.99997614620894" x="0" y="0" height="22.213083039740166" width="21.10926466631329" class="icon-cg-0" data-fill-palette-color="accent" id="cg-0"><path d="M48.489 5.483l25.537 14.743L46.379 47.875 34.283 35.779A10.193 10.193 0 1 0 19.867 50.193L39.172 69.497a10.193 10.193 0 0 0 14.414 0L86.142 36.941V70.699a3.601 3.601 0 0 1-1.801 3.119L48.489 94.517a3.601 3.601 0 0 1-3.601 0L9.036 73.818A3.601 3.601 0 0 1 7.235 70.699V29.301a3.602 3.602 0 0 1 1.801-3.119L44.888 5.483A3.601 3.601 0 0 1 48.489 5.483ZM31.079 38.982a5.663 5.663 0 0 0-8.008 8.008L42.375 66.294a5.663 5.663 0 0 0 8.008 0L91.107 25.569a5.663 5.663 0 0 0-8.008-8.008L46.379 54.281Z" fill="#edf0f5" data-fill-palette-color="accent"></path></svg></g></svg></g></svg></g></svg></g></svg></g><defs></defs></svg><rect width="395.52" height="51.28776524602642" fill="none" stroke="none" visibility="hidden"></rect></g></svg></g></svg>